<?xml version="1.0" standalone="no"?>
<!DOCTYPE svg PUBLIC "-//W3C//DTD SVG 20010904//EN"
 "http://www.w3.org/TR/2001/REC-SVG-20010904/DTD/svg10.dtd">
<svg version="1.0" xmlns="http://www.w3.org/2000/svg"
 width="16.000000pt" height="16.000000pt" viewBox="0 0 16.000000 16.000000"
 preserveAspectRatio="xMidYMid meet">
<metadata>
Created by potrace 1.11, written by Peter Selinger 2001-2013
</metadata>
<g transform="translate(0.000000,16.000000) scale(0.008000,-0.008000)"
fill="#000000" stroke="none">
<path d="M0 1000 l0 -1000 1000 0 1000 0 0 1000 0 1000 -1000 0 -1000 0 0
-1000z m347 466 c24 -46 506 -715 516 -715 19 -2 4 612 -19 717 l-6 32 96 0
c53 0 96 -1 96 -2 0 -2 -7 -39 -15 -83 -11 -60 -14 -169 -14 -430 0 -313 4
-387 25 -457 5 -16 -4 -18 -89 -18 l-95 0 -25 45 c-31 55 -449 624 -459 625
-11 0 -10 -485 1 -550 6 -30 13 -70 17 -87 l7 -33 -97 0 c-88 0 -97 2 -92 18
20 70 26 175 26 485 l0 349 -55 63 c-30 34 -55 65 -55 69 0 3 49 6 110 6 l110
0 17 -34z m1144 20 c87 -19 137 -45 183 -96 51 -56 66 -97 66 -175 0 -109 -45
-181 -143 -231 l-47 -24 36 -58 c55 -85 149 -206 237 -304 l79 -88 -84 0 c-79
0 -85 2 -122 32 -53 44 -208 227 -281 331 l-60 86 -3 -112 c-3 -103 9 -259 24
-315 6 -22 5 -22 -101 -22 -97 0 -106 2 -101 18 21 65 26 164 26 476 0 271 -4
367 -15 421 -8 38 -15 71 -15 72 0 10 268 0 321 -11z"/>
<path d="M1355 1402 c-3 -3 -5 -95 -5 -205 l0 -200 42 7 c127 20 217 139 188
247 -13 46 -60 103 -104 126 -32 17 -112 33 -121 25z"/>
</g>
</svg>
